<svg width="92" height="92" viewBox="0 0 92 92" fill="none" xmlns="http://www.w3.org/2000/svg">
<g clip-path="url(#clip0_1000_454)">
<path d="M92 45.9999C92 71.4068 71.4041 92 45.9999 92C20.5943 92 0 71.4068 0 45.9999C0 20.5955 20.5943 0 45.9999 0C71.4041 0 92 20.5955 92 45.9999Z" fill="#DBA111"/>
<path d="M90.4648 46.0003C90.4648 70.5585 70.5577 90.4658 45.9993 90.4658C21.4407 90.4658 1.5332 70.5587 1.5332 46.0003C1.5332 21.4416 21.4407 1.53418 45.9993 1.53418C70.5573 1.53418 90.4648 21.4416 90.4648 46.0003Z" fill="#034694"/>
<path d="M77.6873 45.9996C77.6873 63.5004 63.5002 77.6852 45.9996 77.6852C28.4981 77.6852 14.3105 63.5004 14.3105 45.9996C14.3105 28.4973 28.4981 14.3105 45.9996 14.3105C63.5006 14.3104 77.6873 28.4973 77.6873 45.9996Z" fill="#DBA111"/>
<path d="M76.7293 45.9996C76.7293 62.9709 62.9693 76.7283 46.0004 76.7283C29.0292 76.7283 15.2715 62.9707 15.2715 45.9996C15.2715 29.0286 29.0292 15.2705 46.0004 15.2705C62.9697 15.2705 76.7293 29.0284 76.7293 45.9996Z" fill="white"/>
<path d="M19.6689 72.5102C20.0089 72.8347 20.8454 73.6314 20.8454 73.6314L21.6473 72.7871L19.2555 70.5068L18.9478 70.8297L15.7363 74.1963L16.9556 75.3568C16.9556 75.3568 17.9855 74.2768 18.3623 73.8834C18.6772 74.1824 19.4328 74.9027 19.4328 74.9027L20.2352 74.0603C20.2352 74.0603 19.4808 73.3405 19.1663 73.0393C19.3658 72.8289 19.4672 72.7225 19.6689 72.5102Z" fill="#DBA111"/>
<path d="M25.437 76.3548C25.3288 75.7092 24.9663 75.1388 24.4179 74.749C23.8719 74.3612 23.2165 74.2081 22.5709 74.3139C21.8755 74.4322 21.2507 74.8375 20.8106 75.4533C20.3721 76.0732 20.195 76.7957 20.313 77.4938C20.4216 78.1375 20.7816 78.7042 21.3284 79.094C21.8755 79.483 22.5357 79.6386 23.1803 79.5302C23.8754 79.4132 24.5005 79.0071 24.9391 78.3893C25.2901 77.8995 25.4732 77.3384 25.4732 76.7775C25.4734 76.6378 25.4616 76.4942 25.437 76.3548ZM22.0025 78.1431C21.4435 77.7477 21.9049 76.9211 22.2305 76.4667C22.5552 76.0086 23.1848 75.3002 23.7438 75.6952C24.3271 76.1125 23.782 77.014 23.5204 77.38C23.258 77.7501 22.587 78.5602 22.0025 78.1431Z" fill="#DBA111"/>
<path d="M29.198 77.632C27.9109 76.9807 26.4222 77.5145 25.7384 78.8697C25.3958 79.5471 25.3289 80.2906 25.5495 80.9597C25.7533 81.5816 26.1952 82.0888 26.7942 82.3902C27.3932 82.6952 28.0673 82.7482 28.6903 82.5437C29.359 82.3255 29.9168 81.8314 30.2572 81.1544C30.9439 79.7967 30.4875 78.2832 29.198 77.632ZM27.7745 81.3981C27.6235 81.4476 27.4803 81.4322 27.3177 81.3512C27.0624 81.2212 26.9726 80.9887 26.9726 80.729C26.9726 80.3696 27.1454 79.9461 27.292 79.6574C27.5459 79.1553 28.0615 78.3624 28.6733 78.6711C28.8347 78.7535 28.9313 78.8606 28.9802 79.0098C29.0826 79.3187 28.9798 79.826 28.7038 80.369C28.4294 80.9123 28.0822 81.2963 27.7745 81.3981Z" fill="#DBA111"/>
<path d="M31.8553 79.4952L31.6184 80.1741C31.6184 80.1741 32.2242 80.3866 32.408 80.4474C32.1762 81.1105 31.1074 84.1611 31.1074 84.1611L32.6943 84.7175C32.6943 84.7175 33.7647 81.6696 33.996 81.0065C34.181 81.0712 34.787 81.2817 34.787 81.2817L35.1716 80.1859L32.0027 79.0742L31.8553 79.4952Z" fill="#DBA111"/>
<path d="M38.4446 80.9675L36.3002 80.5146L36.2084 80.9509L35.25 85.5022L37.4324 85.965C38.1299 86.109 38.5892 85.9377 38.851 85.7683C39.1835 85.5514 39.4166 85.1956 39.5062 84.7704C39.5308 84.6547 39.5426 84.5424 39.5426 84.4325C39.5426 84.1252 39.4452 83.848 39.2691 83.61C39.5149 83.4149 39.6902 83.1393 39.7632 82.7953C39.7818 82.7065 39.7928 82.6063 39.7928 82.5015C39.7928 81.919 39.4601 81.1793 38.4446 80.9675ZM37.8543 84.4422C37.8315 84.5461 37.7897 84.6837 37.7109 84.7352C37.6381 84.7824 37.4982 84.7884 37.317 84.7491C37.317 84.7491 37.2346 84.7309 37.137 84.7118C37.2067 84.3833 37.2534 84.1648 37.3213 83.836C37.4146 83.8578 37.5338 83.8813 37.5338 83.8813C37.8152 83.9407 37.8692 84.1489 37.8692 84.3001C37.8694 84.3609 37.8616 84.4124 37.8543 84.4422ZM37.7078 82.0063C37.8961 82.049 38.0345 82.1181 38.0877 82.1986C38.1121 82.2356 38.1241 82.2875 38.1241 82.3486C38.1241 82.3856 38.119 82.4284 38.1094 82.4799C38.0805 82.6132 38.0414 82.7982 37.6704 82.7222C37.6704 82.7222 37.6242 82.71 37.5605 82.6964C37.6197 82.421 37.6478 82.2834 37.7078 82.0063Z" fill="#DBA111"/>
<path d="M42.4035 81.7087L40.0742 86.4785L41.4044 86.5805C41.4044 86.5805 41.7644 85.8207 41.9082 85.518C42.1896 85.5414 42.4716 85.5612 42.7474 85.5834C42.8506 85.902 43.1105 86.7106 43.1105 86.7106L44.8802 86.8482L42.9028 80.7188L42.4035 81.7087Z" fill="#DBA111"/>
<path d="M47.6546 85.5159C47.6252 84.8188 47.4913 81.6455 47.4913 81.6455L45.8105 81.7161L46.0231 86.809L49.3912 86.6691L49.3407 85.447C49.3407 85.4472 48.1377 85.4985 47.6546 85.5159Z" fill="#DBA111"/>
<path d="M52.2654 85.0286C52.157 84.3394 51.6652 81.2021 51.6652 81.2021L51.2247 81.2728L50.002 81.4632L50.7912 86.5005L54.123 85.9774L53.9322 84.7689C53.9322 84.7689 52.7437 84.9565 52.2654 85.0286Z" fill="#DBA111"/>
<path d="M61.9102 81.6405C61.8967 82.0771 61.6392 82.4532 61.2376 82.6121C61.0151 82.7005 60.8025 82.7005 60.5897 82.6103C60.263 82.4704 59.9603 82.1166 59.7785 81.662C59.5647 81.1257 59.5211 80.6701 59.6614 80.3499C59.7578 80.1258 59.9469 79.9584 60.2357 79.8427C60.5486 79.7182 60.8457 79.8328 61.2529 80.0726L61.6265 80.2931L62.2468 79.3147L61.8786 79.0728C61.202 78.6282 60.3644 78.5374 59.6398 78.827C58.9672 79.095 58.4458 79.5967 58.1702 80.2381C57.8905 80.8886 57.8905 81.6329 58.1741 82.339C58.7095 83.6771 60.2222 84.3363 61.5449 83.8068C62.5008 83.4249 63.0417 82.6988 63.1106 81.7069L63.142 81.2642L61.9244 81.1739L61.9102 81.6405Z" fill="#DBA111"/>
<path d="M65.8335 80.2489C65.4892 79.6369 63.9424 76.8623 63.9424 76.8623L63.5549 77.0808L62.4727 77.6852L64.9601 82.1355L67.9009 80.4928L67.3056 79.4244C67.3058 79.4244 66.2531 80.0112 65.8335 80.2489Z" fill="#DBA111"/>
<path d="M69.104 73.3857L68.7434 73.6495L68.1117 74.1138L70.176 76.9275C70.2705 77.0549 70.2705 77.1401 70.2621 77.1896C70.2424 77.3348 70.0912 77.4921 69.9575 77.5885C69.8944 77.6334 69.7485 77.6947 69.5991 77.6713C69.4924 77.6559 69.4082 77.598 69.3333 77.4968L67.2932 74.7146L65.9336 75.71L67.9638 78.4782C68.2652 78.8879 68.6393 79.1302 69.0759 79.1968C69.5658 79.2733 70.1226 79.1064 70.6401 78.724C71.7046 77.9458 71.6872 76.9123 71.2227 76.279L69.104 73.3857Z" fill="#DBA111"/>
<path d="M75.2996 72.363C74.9866 72.0382 74.6007 71.8923 74.1954 71.9144C74.1716 71.5995 74.0495 71.2985 73.806 71.0465C73.3808 70.6076 72.4301 70.2656 71.5549 71.1176L69.9805 72.6402L73.5281 76.3027L75.1296 74.7501C75.6415 74.2543 75.7542 73.7741 75.759 73.4637C75.7675 73.0654 75.6038 72.6756 75.2996 72.363ZM72.6194 72.2395C72.6722 72.2958 72.7369 72.3616 72.7369 72.4532C72.7369 72.5283 72.696 72.621 72.5731 72.7385C72.5731 72.7385 72.5399 72.7722 72.495 72.8172C72.2962 72.6111 72.2019 72.5144 72.0005 72.3073C72.3556 71.9815 72.5031 72.1207 72.6194 72.2395ZM73.4594 73.5004C73.747 73.2229 74.0237 73.4668 74.1027 73.5496C74.1792 73.6262 74.2661 73.7344 74.2661 73.8281C74.2661 73.8281 74.2661 73.8281 74.2661 73.8312C74.2643 73.9177 74.1912 74.0375 74.0594 74.1654C74.0594 74.1654 73.9982 74.2248 73.9256 74.2932C73.6936 74.0532 73.5366 73.8922 73.3042 73.6535C73.3729 73.5852 73.4594 73.5004 73.4594 73.5004Z" fill="#DBA111"/>
<path d="M19.6591 72.0382C19.7978 72.1717 20.8337 73.1597 20.8337 73.1597L21.1753 72.7996L19.2668 70.9795L19.1899 71.06L16.2109 74.1849L16.9448 74.8853C16.9448 74.8853 18.2141 73.5551 18.3507 73.4096C18.4895 73.5416 19.4233 74.4309 19.4233 74.4309L19.7655 74.0719C19.7655 74.0719 18.8317 73.1831 18.6929 73.0512C18.8168 72.9215 19.5364 72.1665 19.6591 72.0382Z" fill="white"/>
<path d="M24.2244 75.0213C23.7514 74.6845 23.1853 74.55 22.6297 74.6429C22.0196 74.7476 21.4725 75.1038 21.0852 75.6488C20.6968 76.1955 20.541 76.8294 20.6445 77.4371C20.7376 77.9943 21.0507 78.4861 21.5241 78.8217C22.0001 79.1604 22.5685 79.2928 23.1267 79.1993C23.7334 79.0973 24.2813 78.7396 24.668 78.1983C24.9771 77.7617 25.1405 77.2672 25.1405 76.7773C25.1405 76.6552 25.1298 76.5315 25.1099 76.4096C25.0153 75.8531 24.7015 75.36 24.2244 75.0213ZM23.7938 77.5755C23.4737 78.0231 22.6405 79.0069 21.8112 78.417C20.9848 77.8304 21.6409 76.7212 21.9596 76.2706C22.2794 75.8201 23.1129 74.838 23.9382 75.4247C24.7677 76.0165 24.1135 77.1263 23.7938 77.5755Z" fill="white"/>
<path d="M29.0466 77.9315C27.9298 77.3667 26.636 77.8366 26.036 79.0232C25.7339 79.6197 25.6743 80.2689 25.8661 80.8574C26.0422 81.392 26.425 81.8292 26.9443 82.0905C27.4647 82.3566 28.0483 82.4038 28.5857 82.2269C29.1704 82.0338 29.6585 81.6006 29.9607 81.0045C30.5589 79.8181 30.1664 78.4958 29.0466 77.9315ZM27.1665 81.6476C26.2623 81.1928 26.7434 79.9965 26.9933 79.5051C27.2424 79.0114 27.9192 77.9148 28.8221 78.3737C29.0624 78.4939 29.2229 78.6727 29.2993 78.9067C29.4766 79.4484 29.189 80.1485 29.0013 80.5205C28.8145 80.8897 28.4201 81.5373 27.8778 81.715C27.6457 81.7936 27.4057 81.7698 27.1665 81.6476Z" fill="white"/>
<path d="M32.1729 79.6053L32.0447 79.9678C32.0447 79.9678 32.6766 80.19 32.835 80.2457C32.7649 80.4441 31.5332 83.9563 31.5332 83.9563L32.4905 84.2927C32.4905 84.2927 33.7231 80.7807 33.792 80.5817C33.9503 80.6369 34.5823 80.8577 34.5823 80.8577L34.7473 80.3913L32.2081 79.5L32.1729 79.6053Z" fill="white"/>
<path d="M38.3768 81.2938L36.5592 80.9102L36.5348 81.0205L35.6465 85.247L37.501 85.6364C37.9725 85.7351 38.3648 85.686 38.6682 85.4872C38.9307 85.3159 39.1068 85.0426 39.1788 84.7024C39.1972 84.6095 39.2082 84.5209 39.2082 84.4343C39.2082 84.0647 39.0249 83.7517 38.6977 83.5274C39.0766 83.4184 39.348 83.1396 39.4352 82.7256C39.4501 82.6609 39.4591 82.5845 39.4591 82.498C39.4589 82.0751 39.2365 81.4751 38.3768 81.2938ZM37.7414 81.6679C38.047 81.7325 38.2585 81.8494 38.3661 82.0157C38.4281 82.1101 38.4586 82.2206 38.4586 82.3491C38.4586 82.4118 38.4505 82.4769 38.4358 82.5475C38.3177 83.1103 37.8631 83.1043 37.6016 83.0472C37.6016 83.0472 37.3249 82.9901 37.1644 82.9565C37.2018 82.7831 37.4127 81.7797 37.4491 81.6069C37.5652 81.6305 37.7414 81.6679 37.7414 81.6679ZM37.6016 83.5545C38.118 83.6631 38.1995 84.0705 38.1995 84.318C38.1995 84.4243 38.1828 84.5001 38.1807 84.5127C38.1287 84.757 38.0356 84.9221 37.8925 85.0144C37.7414 85.1152 37.5237 85.1346 37.2482 85.0775C37.2482 85.0775 36.9177 85.0068 36.7406 84.9716C36.7787 84.7899 37.0259 83.6192 37.0632 83.4407C37.2146 83.4722 37.6016 83.5545 37.6016 83.5545Z" fill="white"/>
<path d="M42.7039 81.8555L40.5898 86.1829L41.1987 86.2282C41.1987 86.2282 41.6462 85.2878 41.7054 85.1676C41.8341 85.1775 42.869 85.258 42.9959 85.2683C43.0364 85.3923 43.3592 86.3954 43.3592 86.3954L44.4078 86.4763L42.8376 81.6084L42.7039 81.8555ZM42.4718 83.5955C42.574 83.9224 42.7707 84.5525 42.8357 84.7583C42.6269 84.7428 42.1459 84.7054 41.9392 84.6898C42.034 84.4953 42.3222 83.9028 42.4718 83.5955Z" fill="white"/>
<path d="M47.333 85.8646C47.3246 85.6536 47.1692 81.9941 47.1692 81.9941L47.0612 81.9981L46.1562 82.0351L46.3422 86.4623L49.0431 86.3478L49.0193 85.7952C49.0197 85.7954 47.5283 85.8582 47.333 85.8646Z" fill="white"/>
<path d="M51.9881 85.4142C51.9544 85.2055 51.3862 81.583 51.3862 81.583L51.2778 81.6004L50.3848 81.7417L51.0713 86.1183L53.7415 85.6967L53.6554 85.1498C53.6552 85.1502 52.1791 85.382 51.9881 85.4142Z" fill="white"/>
<path d="M62.2422 81.6478C62.2263 82.2244 61.888 82.7127 61.3606 82.9252C61.0537 83.0473 60.7506 83.0431 60.4576 82.9172C60.0447 82.7427 59.6842 82.3291 59.4656 81.7862C59.2197 81.1663 59.18 80.6234 59.3518 80.2175C59.4856 79.9106 59.7397 79.6808 60.1113 79.5334C60.5975 79.3387 61.0438 79.5606 61.4216 79.7848L61.516 79.8399L61.7878 79.4132L61.6968 79.3518C61.1106 78.9678 60.3865 78.8877 59.7633 79.1372C59.1728 79.3739 58.7143 79.8105 58.4763 80.3695C58.232 80.9358 58.2343 81.593 58.4842 82.2126C58.9503 83.3817 60.2662 83.956 61.4218 83.4955C62.2598 83.1592 62.7146 82.5513 62.7754 81.6834L62.7834 81.5716L62.2484 81.5346L62.2422 81.6478Z" fill="white"/>
<path d="M65.7041 80.7036C65.5998 80.5207 63.813 77.3193 63.813 77.3193L63.7147 77.3741L62.9277 77.8148L65.0861 81.68L67.4456 80.3626L67.1771 79.8787C67.1775 79.8791 65.8711 80.6068 65.7041 80.7036Z" fill="white"/>
<path d="M69.0314 73.8516L68.9402 73.9185L68.5785 74.1843L70.4458 76.7284C70.5708 76.8996 70.62 77.0705 70.5933 77.238C70.5488 77.541 70.2728 77.7737 70.157 77.8563C70.0247 77.9562 69.7823 78.0388 69.5503 78.0011C69.3533 77.9721 69.1919 77.8679 69.0624 77.6945L67.2189 75.18L66.4023 75.7821L68.2338 78.2788C68.4802 78.6156 68.7812 78.8142 69.127 78.8654C69.6724 78.9479 70.1843 78.6442 70.4417 78.4565C71.3254 77.8068 71.3373 76.9939 70.9554 76.4768L69.0314 73.8516Z" fill="white"/>
<path d="M75.0578 72.595C74.7151 72.2404 74.2765 72.1595 73.8217 72.3345C73.8577 72.2284 73.8792 72.1202 73.8792 72.012C73.8792 71.749 73.7745 71.4924 73.5639 71.2758C73.2788 70.9826 72.5406 70.6203 71.7856 71.3544L70.4512 72.6472L73.532 75.8277L74.8962 74.505C75.2402 74.1747 75.4198 73.8186 75.424 73.4584C75.4294 73.1439 75.3017 72.8464 75.0578 72.595ZM73.0684 72.4568C73.0684 72.6796 72.9233 72.8625 72.8064 72.9766C72.8064 72.9766 72.6018 73.1754 72.4863 73.2892C72.3618 73.1615 71.6478 72.4258 71.5257 72.2954C71.6086 72.2153 71.739 72.091 71.739 72.091C72.1559 71.685 72.5219 71.6581 72.8579 72.0062C73.0117 72.1661 73.0684 72.3171 73.0684 72.4568ZM73.9169 74.7648C73.7907 74.6347 72.9583 73.7733 72.8306 73.6432C72.9405 73.5373 73.2256 73.26 73.2256 73.26C73.7692 72.7361 74.3203 73.2914 74.3437 73.3171C74.515 73.494 74.5991 73.6614 74.5991 73.8278C74.5991 73.8309 74.5991 73.8327 74.5991 73.8342C74.597 74.0171 74.491 74.2085 74.2899 74.4073C74.2903 74.4073 74.0247 74.6626 73.9169 74.7648Z" fill="white"/>
<path d="M25.5627 15.6962L23.7034 16.1977L23.9169 16.8637C24.1737 17.6711 23.9412 18.5165 23.3118 19.0685C22.9617 19.3755 22.5574 19.5164 22.1115 19.4858C21.4339 19.4403 20.669 19.0017 20.0664 18.312C19.3561 17.4983 19.0017 16.715 19.0468 16.0512C19.0781 15.5672 19.3135 15.1419 19.765 14.7463C20.2638 14.3095 20.8963 14.3266 21.7542 14.4967L22.3906 14.6225L22.8021 12.8417L22.1614 12.6855C20.784 12.3447 19.3475 12.6795 18.3227 13.5766C16.3157 15.3328 16.152 18.2009 17.942 20.2479C19.6055 22.1497 22.4918 22.357 24.373 20.7115C25.728 19.528 26.2001 18.0137 25.7398 16.3371L25.5627 15.6962Z" fill="#DBA111"/>
<path d="M30.6122 6.37083L28.713 7.26518C28.713 7.26518 29.7732 9.512 30.1376 10.2864C29.5959 10.5411 29.0712 10.789 28.5289 11.045C28.1631 10.2713 27.1023 8.02348 27.1023 8.02348L24.6016 9.20408L28.4101 17.2825L30.9129 16.1025C30.9129 16.1025 29.7329 13.6039 29.3534 12.7937C29.8955 12.54 30.4198 12.2922 30.9631 12.0364C31.3438 12.8442 32.5222 15.3432 32.5222 15.3432L35.0245 14.1624L31.2172 6.08594L30.6122 6.37083Z" fill="#DBA111"/>
<path d="M39.0791 11.3755C38.9572 10.7739 38.8333 10.162 38.7129 9.56121C39.4855 9.4058 41.5386 8.99123 41.5386 8.99123L41.1775 7.19691C41.1775 7.19691 39.1234 7.61206 38.3502 7.76824C38.2389 7.2182 38.1468 6.75622 38.0348 6.20695C38.8372 6.04515 41.0343 5.60116 41.0343 5.60116L40.6721 3.80762L40.0149 3.93961L34.9609 4.9617L36.7278 13.7169L42.4852 12.553L42.1235 10.7604C42.1235 10.7604 39.8869 11.2112 39.0791 11.3755Z" fill="#DBA111"/>
<path d="M47.2466 3.59947L44.4778 3.54199L44.464 4.20971L44.291 12.4712L50.1031 12.5931L50.1446 10.6587C50.1446 10.6587 47.9133 10.6107 47.0979 10.5941C47.1212 9.50054 47.2466 3.59947 47.2466 3.59947Z" fill="#DBA111"/>
<path d="M56.2182 8.10391C55.4999 7.57632 55.2898 7.36478 55.3623 7.07659C55.398 6.92718 55.5607 6.4501 56.0767 6.57784C56.3871 6.65758 56.696 6.82112 56.8336 7.48923L56.9848 8.23088L58.813 7.61309L58.6992 7.0375C58.4743 5.90703 57.5182 4.94474 56.318 4.64495C55.4585 4.43147 54.5969 4.54566 53.8897 4.97048C53.2405 5.35931 52.784 5.97303 52.6034 6.69938C52.1445 8.53029 53.3787 9.41186 54.1947 9.99597C55.0314 10.5942 55.2441 10.8284 55.1163 11.3281C55.0763 11.4843 54.9843 11.6076 54.8404 11.6949C54.6729 11.7934 54.4628 11.829 54.2919 11.7845C53.8523 11.6763 53.6621 11.4686 53.4769 10.9002L53.2523 10.2187L51.418 10.9689L51.5956 11.5513C51.9396 12.6829 52.7606 13.3961 54.1041 13.7327C55.6141 14.1105 57.446 13.416 57.9024 11.6029C58.3785 9.6925 57.0783 8.73524 56.2182 8.10391Z" fill="#DBA111"/>
<path d="M62.8235 12.8672C63.5282 13.2233 65.3959 14.1678 65.3959 14.1678L66.2219 12.5347C66.2219 12.5347 64.3527 11.5902 63.6503 11.2352C63.9017 10.7344 64.1148 10.3132 64.3659 9.81329C65.0947 10.1814 67.0981 11.1938 67.0981 11.1938L67.9218 9.56073L62.7231 6.93359L62.4225 7.52874L58.6934 14.9044L63.9356 17.552L64.7622 15.9199C64.7622 15.9199 62.7252 14.8908 61.9892 14.5202C62.2648 13.9721 62.5479 13.4155 62.8235 12.8672Z" fill="#DBA111"/>
<path d="M73.1779 13.7016L64.8477 18.0119L66.4413 19.3979C66.4413 19.3979 67.8162 18.6669 68.3159 18.4044C68.6875 18.728 69.2352 19.2045 69.6008 19.5221C69.4216 20.0536 68.9124 21.5479 68.9124 21.5479L71.1079 23.4582L74.6695 12.9561L73.1779 13.7016Z" fill="#DBA111"/>
<path d="M25.2509 16.2394L24.269 16.5063L24.341 16.7285C24.653 17.7086 24.3716 18.7338 23.6042 19.4048C23.1635 19.7915 22.6497 19.9685 22.082 19.932C21.2773 19.878 20.4214 19.3949 19.7307 18.6049C18.9408 17.7006 18.5493 16.8067 18.6012 16.0193C18.6418 15.4215 18.9348 14.88 19.4721 14.41C20.1776 13.7932 21.0657 13.9061 21.8413 14.0595L22.0543 14.1008L22.2692 13.17L22.0557 13.1168C20.8178 12.813 19.5333 13.1101 18.6163 13.9129C16.802 15.5018 16.6563 18.097 18.2785 19.9535C19.78 21.6702 22.3824 21.8583 24.0813 20.3746C25.3132 19.2943 25.7272 17.977 25.3099 16.4552L25.2509 16.2394Z" fill="white"/>
<path d="M30.8012 6.7714L29.3071 7.47783C29.3071 7.47783 30.5649 10.147 30.7304 10.4978C30.4106 10.6494 28.6359 11.4868 28.3138 11.6372C28.1487 11.2858 26.8917 8.61682 26.8917 8.61682L25.1934 9.41692L28.6219 16.6873L30.3191 15.8884C30.3191 15.8884 28.9272 12.9378 28.7595 12.5807C29.0814 12.4292 30.8541 11.5939 31.1759 11.4417C31.3431 11.7979 32.7355 14.7501 32.7355 14.7501L34.4305 13.9493L31.0021 6.67773L30.8012 6.7714Z" fill="white"/>
<path d="M38.7291 11.9005C38.6594 11.5511 38.2576 9.56192 38.188 9.21257C38.5598 9.13787 41.0133 8.64202 41.0133 8.64202L40.8277 7.72347C40.8277 7.72347 38.3749 8.21719 38.001 8.29287C37.9331 7.9503 37.5791 6.20011 37.5112 5.85792C37.8859 5.78109 40.5089 5.25291 40.5089 5.25291L40.3229 4.33398L35.4863 5.31001L37.0772 13.1902L41.9601 12.2045L41.7745 11.2856C41.7741 11.2858 39.1069 11.824 38.7291 11.9005Z" fill="white"/>
<path d="M46.7892 4.03672L44.9142 3.99609L44.9102 4.21751L44.7441 12.0341L49.6665 12.1384L49.6883 11.095C49.6883 11.095 47.0237 11.0387 46.642 11.0305C46.6517 10.6135 46.7892 4.03672 46.7892 4.03672Z" fill="white"/>
<path d="M56.1837 6.14679C56.7798 6.29601 57.1241 6.69431 57.27 7.39977L57.3207 7.64634L58.2987 7.31577L58.2617 7.12281C58.0685 6.15956 57.2444 5.33662 56.2094 5.07631C55.4652 4.8907 54.724 4.98806 54.1195 5.35094C53.5728 5.67958 53.1872 6.1973 53.0353 6.80792C52.6502 8.34367 53.6512 9.059 54.454 9.63285C55.2666 10.2141 55.7565 10.6108 55.5479 11.4351C55.465 11.7783 55.2409 11.9743 55.0681 12.0775C54.8002 12.2379 54.4716 12.288 54.1828 12.2172C53.59 12.0686 53.2848 11.7498 53.0533 11.0387L52.9778 10.8115L51.9629 11.2255L52.0219 11.4204C52.3169 12.3902 53.0339 13.0051 54.214 13.3005C55.5103 13.6242 57.0813 13.0376 57.4684 11.4934C57.8717 9.87477 56.8092 9.09151 55.9493 8.46289C55.2194 7.92407 54.7785 7.56389 54.9285 6.96856C55.0599 6.43632 55.5006 5.9757 56.1837 6.14679Z" fill="white"/>
<path d="M64.1685 9.21565C64.5106 9.38771 66.8978 10.594 66.8978 10.594L67.3226 9.75659L62.9195 7.53223L62.8187 7.7308L59.293 14.7082L63.7373 16.9542L64.1607 16.1171C64.1607 16.1171 61.7343 14.8903 61.3906 14.7159C61.5508 14.3973 62.4665 12.5883 62.6256 12.2695C62.9643 12.4406 65.1971 13.569 65.1971 13.569L65.6227 12.7315C65.6227 12.7315 63.3875 11.6041 63.0488 11.4321C63.2064 11.1213 64.0113 9.52647 64.1685 9.21565Z" fill="white"/>
<path d="M73.3813 14.0986L65.6348 18.1076L66.5005 18.8603C66.5005 18.8603 68.1433 17.9894 68.3757 17.8663C68.5685 18.0346 69.93 19.2191 70.1187 19.3834C70.0367 19.6283 69.4282 21.4073 69.4282 21.4073L70.8983 22.6854L73.8914 13.8594L73.3813 14.0986ZM69.2726 17.405C69.6389 17.2156 70.5751 16.7292 71.146 16.4321C70.9335 17.0391 70.5832 18.0385 70.4489 18.4275C70.1518 18.1674 69.57 17.6619 69.2726 17.405Z" fill="white"/>
<path d="M67.9756 44.7928C67.3402 43.1102 65.1526 42.3792 63.0846 43.1597C62.2224 43.4841 61.5162 44.0264 61.0346 44.6666C62.4001 40.7695 67.9621 39.9425 67.9621 36.3169C67.9621 30.2399 59.3321 31.9421 60.5878 36.3178C60.5878 34.3324 63.7475 33.9686 63.7475 36.3178C63.7475 38.6673 58.238 40.2081 58.238 44.1775C58.238 48.5532 62.6145 48.9581 62.1715 52.9602C62.0962 53.6501 61.3542 54.5569 60.28 54.5569C53.5767 54.5569 55.9697 46.3051 53.6274 43.7941L53.7499 42.0986C55.104 42.9289 58.6963 40.9838 56.3314 38.0188C56.3314 39.4769 53.2951 39.3962 53.2951 36.6414C53.2951 32.9138 56.78 34.8588 56.9494 35.682C56.7824 34.3245 56.7193 33.463 56.9434 32.6807C55.0647 33.2865 54.8889 32.2006 55.1266 31.7804C55.3987 31.2944 55.7628 30.7267 56.4947 30.7267C56.8903 30.7267 57.1278 30.7819 57.2677 30.8783C57.5017 31.0383 57.6728 30.6727 57.6393 31.0128C57.8404 30.7068 57.7599 31.0889 57.9538 30.7819C58.1514 30.4771 58.4176 30.1324 58.8852 29.6731L58.865 28.9855L59.4124 29.1862L59.9378 28.3363C59.3708 27.1606 58.6012 27.7269 58.0346 26.2691C57.5606 26.146 50.1787 26.9488 50.3928 24.0041C49.7909 24.0041 48.3651 24.3339 49.2474 25.5329C48.5613 25.6155 48.0668 24.8363 47.0325 26.9438C48.3281 26.7009 47.6575 28.1492 47.6575 28.5612C47.6575 31.2313 44.1029 31.1862 44.1029 29.9355C43.2463 30.768 43.7323 32.5882 45.0278 33.0367C45.0278 33.0367 44.5351 34.9837 43.3188 36.2181C41.5135 36.1461 38.6172 35.8324 36.951 34.2573C36.2323 33.5786 35.6618 33.2087 35.1758 33.0187V32.1361C35.8873 31.7879 36.6674 31.1717 37.4782 30.1419C38.1107 29.3694 38.453 28.3789 38.3609 27.327C38.3489 27.2014 38.3303 27.0773 38.3083 26.9564C38.3015 26.9178 38.292 26.8805 38.2831 26.8422C38.2653 26.7574 38.2448 26.6761 38.2202 26.5923C38.2084 26.5519 38.1974 26.5104 38.1846 26.4704C38.1571 26.3864 38.1269 26.3061 38.0942 26.2263C38.0804 26.1929 38.0708 26.1572 38.0547 26.1259C38.0096 26.0185 37.9593 25.9174 37.9049 25.8156C37.8817 25.7744 37.8571 25.7359 37.8345 25.698C37.7971 25.6368 37.7617 25.5749 37.7224 25.5158C37.6906 25.469 37.6574 25.4216 37.6239 25.3744C37.5895 25.3293 37.553 25.283 37.5176 25.2377C37.4783 25.1893 37.4396 25.138 37.3976 25.09C37.3698 25.0583 37.3396 25.0277 37.3102 24.9985C37.2049 24.8822 37.0907 24.774 36.9715 24.6706C36.9616 24.6621 36.9498 24.6511 36.9382 24.6422C36.8716 24.5853 36.8006 24.5309 36.7307 24.479C36.7129 24.4655 36.6943 24.4523 36.6744 24.4384C36.5997 24.3858 36.5232 24.3343 36.4435 24.2851C36.4386 24.282 36.4342 24.2801 36.4307 24.2766C35.672 23.8121 34.7552 23.569 33.7869 23.6459C31.4555 23.8315 29.7226 25.7794 29.9173 27.997C30.0688 29.7248 31.3431 31.1047 32.9998 31.5448C32.4186 31.8692 31.9276 32.0564 31.8167 32.0564C31.8351 32.0682 31.8591 32.0819 31.8852 32.0988C31.892 32.1018 31.8999 32.1067 31.908 32.1107C31.9305 32.1252 31.9572 32.1402 31.9845 32.1549C31.9912 32.1588 31.9996 32.1626 32.0062 32.1667C32.0436 32.1855 32.082 32.205 32.1254 32.2257C32.1322 32.2288 32.1403 32.2313 32.1471 32.2346C32.1854 32.2524 32.2245 32.271 32.2659 32.2869C32.2777 32.2923 32.2905 32.2972 32.3033 32.3014C32.4047 32.3438 32.5189 32.3819 32.6437 32.4175C32.6615 32.4224 32.6803 32.4265 32.6956 32.4313C32.7461 32.4441 32.7974 32.4559 32.8504 32.4686C32.8678 32.4717 32.8856 32.4754 32.9044 32.4793C32.9714 32.4912 33.0414 32.5031 33.1117 32.5116C33.1177 32.5116 33.1237 32.5147 33.1295 32.5147V33.0165C33.1032 33.0223 33.0793 33.025 33.0548 33.0289C32.2965 33.1537 31.8037 33.3871 31.5809 34.0622C31.3595 34.7398 31.587 34.9846 31.9421 35.46C31.6421 35.9963 30.8559 36.1968 31.8819 37.3816C31.8072 37.8291 31.9018 38.5417 32.5531 38.7579C32.7656 38.8299 32.9427 38.8682 33.1295 38.9005L33.1286 47.7833C32.4791 48.1274 32.1586 48.5567 31.9813 48.9568C31.9813 48.9568 31.4599 47.7992 31.4943 50.0923C32.0868 49.6326 31.8535 50.6245 31.8535 50.6245C31.0469 51.6696 32.0715 51.6129 32.0715 51.6129C32.7663 50.9189 32.6246 51.9274 32.6246 51.9274C32.6246 53.1574 33.1241 53.6387 33.1284 53.6406V60.4078L32.5383 60.4096L32.5439 62.2768L33.5759 62.2751C32.9968 62.5155 32.6147 63.0874 32.6705 63.7195C32.7406 64.5163 33.4766 65.1083 34.3148 65.0437C35.1523 64.9763 35.7747 64.2779 35.7033 63.4791C35.6559 62.9279 35.2907 62.4781 34.794 62.2714L35.7462 62.2688L35.7423 60.4015L35.1744 60.4041L35.1753 54.4001C35.2924 54.4644 35.419 54.5089 35.5564 54.5389C35.6112 54.5491 35.6656 54.5567 35.7215 54.5603C35.7461 54.5643 35.7716 54.5643 35.7962 54.565C35.6435 53.7757 36.115 53.2526 36.115 53.2526C36.3571 52.8882 36.7072 52.604 37.1057 52.4035C38.2973 51.8057 39.9235 51.9568 40.4094 52.9302C43.4889 52.1184 46.1352 49.0231 46.1352 49.0231L47.651 51.603C44.4372 52.6776 37.4372 58.7629 42.2963 60.8706C42.2945 61.4841 42.2123 66.0373 39.2925 65.6756C35.0876 65.1577 34.039 66.8974 34.8465 68.8532C34.467 70.5023 35.737 71.0748 35.737 71.0748C35.5463 70.1222 36.0045 69.333 37.7423 69.343C37.7333 71.0808 38.8557 71.3942 38.8557 71.3942C38.8636 69.906 39.8977 69.3548 40.8165 69.3589C40.8097 70.5852 42.2343 71.0512 42.2343 71.0512C42.2343 71.0512 41.8732 69.638 43.4837 69.3589C47.5604 68.6486 43.7316 64.4557 49.9313 63.3003C49.9313 63.3003 46.8441 62.8348 46.8441 61.1471C46.8441 59.611 49.6386 58.5606 50.6007 58.5606C52.5739 62.3306 54.7176 62.3604 55.2794 62.3874C56.1532 63.3634 55.8604 66.6532 54.5989 66.5885C49.9808 66.3406 50.1498 69.1497 50.6673 69.7243C50.6083 70.8147 51.4566 71.4445 51.4566 71.4445C51.4566 70.2757 52.5687 69.9471 53.9949 70.0243C53.92 71.452 54.8296 71.6653 54.8296 71.6653C54.8546 70.2285 55.9175 69.9848 56.6727 70.0243C56.6176 71.0313 57.617 71.3278 57.617 71.3278C57.617 71.3278 57.5187 70.0496 58.8642 70.0496C61.4166 70.0479 57.7097 64.5778 62.6913 59.168C58.3153 61.1936 55.9872 56.1302 55.9872 55.1584C58.2363 57.7904 65.5286 58.3158 65.5286 53.8199C65.5286 49.5248 60.8079 47.9244 63.0166 46.2816C64.3011 45.3265 66.8272 47.2561 65.3819 49.2494C67.4545 48.4814 68.6097 46.4745 67.9756 44.7928ZM40.0046 44.9282C38.3548 45.8982 37.2487 47.1255 35.7447 47.6623C35.5163 47.7425 35.3342 47.7653 35.1759 47.7551V39.3716C35.5744 39.409 36.6085 39.5505 37.8175 40.0504C39.015 40.7038 39.015 42.0543 37.5038 42.3744C38.4589 44.2032 41.7675 43.3079 42.4887 41.8184C42.8419 41.787 43.1541 42.4176 43.4477 43.0137C42.9834 43.2548 42.0333 43.734 40.0046 44.9282ZM58.4701 31.0306C58.2886 31.2768 58.1098 31.5216 57.953 31.7314C58.3714 32.4268 59.1586 32.8615 60.021 32.7817C61.2128 32.6689 62.0901 31.611 61.9806 30.418C61.9742 30.3747 61.9682 30.3356 61.9624 30.2932C61.8347 30.911 61.1066 31.4341 60.1805 31.5197C59.4793 31.5855 58.8444 31.3842 58.4701 31.0306Z" fill="#D1D3D4"/>
<path d="M31.8157 25.9859C31.8157 25.9872 31.8127 25.9903 31.8127 25.9931H31.8118C31.8304 25.9487 31.8499 25.9044 31.8725 25.8611C31.8511 25.9023 31.8318 25.9427 31.8157 25.9859ZM31.8915 61.1483C31.8933 61.1469 31.8966 61.1469 31.8971 61.1447C31.8958 61.1474 31.8935 61.1474 31.8915 61.1483ZM31.2085 60.9419L32.2405 60.9406C32.1145 60.9933 32.0007 61.0623 31.8971 61.1447C31.9997 61.1054 32.1085 61.0817 32.2238 61.0817C32.7414 61.0817 33.1604 61.5009 33.1604 62.0188C33.1604 62.536 32.7414 62.9552 32.2238 62.9552C31.8048 62.9552 31.4543 62.6804 31.3357 62.3001V62.3848C31.4065 63.1836 32.1406 63.776 32.9798 63.7071C33.8165 63.6417 34.4387 62.9413 34.3696 62.1445C34.3207 61.5956 33.9562 61.1452 33.4596 60.9385L34.4112 60.9345L34.4068 59.0671L33.839 59.0701V53.0659C33.2841 52.7779 32.9636 52.1505 33.0875 51.5062C33.4428 51.5062 33.7606 51.5985 33.9733 51.744C33.6453 52.4657 34.4612 53.2302 34.4612 53.2302C34.3085 52.4414 34.779 51.9194 34.779 51.9194C35.0231 51.5542 35.373 51.2697 35.7698 51.0688C36.9629 50.4705 38.5881 50.6217 39.0741 51.5946C42.1537 50.7841 44.8002 47.6874 44.8002 47.6874L46.3168 50.2656C49.8716 50.2656 48.6342 47.6036 48.402 47.3715C49.2203 47.3715 50.3713 47.9736 50.3713 49.307C50.3713 52.5809 40.8537 53.0473 40.8537 57.0213C40.8537 58.6898 42.5075 59.3245 42.5075 59.3245C42.5075 62.9477 40.0195 65.1001 38.3177 65.1001C35.5963 65.1001 33.5125 64.5489 33.5125 67.5163H34.4612C33.5599 68.4174 34.401 69.7393 34.401 69.7393C34.2112 68.7878 34.6706 68.0001 36.4081 68.0085H37.4921C36.8033 68.6969 37.2056 69.742 37.5226 70.061C37.5287 68.5709 38.5618 68.0201 39.4817 68.0255C39.8153 68.0255 40.2684 68.0255 40.2684 68.0255C40.0544 68.2364 40.3983 69.216 40.9003 69.7161C40.9003 69.7161 40.5374 68.3046 42.1496 68.0255C46.225 67.3152 42.3954 63.1223 48.5955 61.9651C48.5955 61.9651 45.5103 61.501 45.5103 59.8116C45.5103 58.278 48.3035 57.2253 49.264 57.2253C50.0212 57.1171 50.7423 57.1444 51.3597 57.2768C51.6107 59.7108 54.4049 59.5925 55.0139 59.5925C57.3844 61.9634 54.4112 65.7692 54.4112 65.7692C50.7731 65.7692 49.3331 66.2712 49.3331 68.3899H50.0217C49.6358 68.7778 49.8547 69.8442 50.1204 70.1103C50.1204 68.9407 51.2345 68.614 52.6607 68.6893H53.4106C53.0447 69.0549 53.1093 69.9443 53.4968 70.3304C53.5181 68.8933 54.5825 68.6495 55.3389 68.6893H55.964C55.73 68.9256 55.964 69.6748 56.2847 69.9957C56.2847 69.9957 56.186 68.7166 57.5307 68.7151C60.0841 68.7151 56.3751 63.2433 61.3596 57.8336C56.9838 59.8602 54.6538 54.7952 54.6538 53.8232C56.9033 56.4562 64.1971 56.9814 64.1971 52.4866C64.1971 48.8601 60.8327 47.1556 61.1114 45.7237C61.2082 44.6277 62.1275 43.7686 63.2503 43.7686C64.4353 43.7686 65.3959 44.7313 65.3959 45.9165C65.3959 46.8201 64.841 47.5918 64.0506 47.9088C64.0523 47.9088 64.0523 47.9066 64.0523 47.9066C64.0506 47.9088 64.0479 47.9111 64.0479 47.9149C66.1186 47.1468 67.275 45.1392 66.6433 43.4579C66.0059 41.7752 63.8183 41.0425 61.7519 41.8226C60.8862 42.1493 60.1825 42.6895 59.7015 43.3309C61.0646 39.4339 66.6278 38.6083 66.6278 34.9811C66.6278 28.9041 57.9974 30.6071 59.2531 34.9829C59.2531 34.9171 59.2571 34.8523 59.2651 34.789C59.4851 32.3155 63.9066 31.81 63.9066 35.0342C63.9066 37.7889 58.2438 39.3157 58.2438 43.0218C58.2438 46.8282 62.427 47.7802 62.427 51.7858C62.427 52.2628 62.1748 54.3169 59.3961 54.3169C56.7148 54.3169 55.4258 52.8181 54.6936 50.8622C53.3278 48.2236 53.8295 44.1047 52.2916 42.4578L52.4137 40.764C53.7685 41.5952 57.362 39.6484 55.0016 36.6834C55.0016 38.143 51.9628 38.0604 51.9628 35.3067C51.9628 31.5791 55.4457 33.5242 55.6151 34.3465C55.4479 32.9898 55.3823 32.126 55.6111 31.3466C53.7305 31.9507 53.5575 30.8657 53.7915 30.4444C54.0667 29.9574 54.4303 29.3907 55.161 29.3907C56.2171 29.3907 56.1502 29.7784 56.0946 30.3246C56.4979 29.7145 56.6125 29.256 57.5512 28.3381L57.5313 27.6487L58.0759 27.8511L58.6054 27.0003C58.0391 25.8245 57.2692 26.3932 56.7002 24.9342C56.2283 24.8104 50.0219 24.2377 50.2367 21.292C49.6874 21.292 48.1923 23.186 49.2039 24.1994C49.2039 24.1994 48.4033 24.1994 47.9154 24.1994C47.2262 24.2808 45.6178 23.7999 44.5857 25.9062C47.1271 23.3652 48.7768 29.4273 44.0958 29.4273V29.4264C43.4051 29.4282 42.8126 29.1402 42.7726 28.653C42.3061 30.6992 45.2549 31.3359 45.2549 31.3359C45.2549 31.9438 43.7778 35.2348 43.06 35.9519C43.5438 36.4359 43.6942 39.358 41.4571 39.358C42.2638 37.1766 39.8911 35.3283 37.5866 34.1057C37.5888 34.1057 37.5888 34.1057 37.5897 34.1057C37.1724 33.947 36.7751 33.7542 36.407 33.522C34.9922 32.8755 33.8422 32.5117 33.8422 32.5117V30.8017C34.5536 30.4528 35.3338 29.8365 36.1445 28.8067C36.778 28.0351 37.1186 27.0445 37.0261 25.9918C37.0162 25.866 36.9977 25.7439 36.9727 25.6208C36.9671 25.5825 36.9582 25.5461 36.95 25.5078C36.9315 25.423 36.9107 25.3396 36.8864 25.2581C36.8753 25.2165 36.8635 25.1774 36.849 25.1362C36.8223 25.0522 36.7918 24.9701 36.7604 24.8904C36.7465 24.8565 36.7348 24.8242 36.7209 24.7907C36.6747 24.6854 36.6239 24.5819 36.5705 24.4826C36.5492 24.4402 36.5231 24.4021 36.5009 24.3616C36.4635 24.3009 36.4273 24.2407 36.3884 24.1817C36.3561 24.1344 36.3238 24.086 36.2891 24.039C36.2549 23.9939 36.2204 23.9475 36.1838 23.9041C36.1447 23.8528 36.1053 23.8027 36.0629 23.7547C36.0354 23.723 36.006 23.6924 35.9764 23.6622C35.8699 23.547 35.7569 23.4388 35.638 23.3374C35.6261 23.3278 35.616 23.3146 35.6042 23.3061C35.5374 23.2499 35.4675 23.1958 35.3957 23.1447C35.3768 23.1323 35.3592 23.1162 35.3406 23.1034C35.2647 23.0494 35.1894 22.9999 35.1093 22.9501C35.1046 22.9479 35.0998 22.9441 35.0954 22.9424C34.3371 22.4756 33.4199 22.2348 32.452 22.3105C32.2436 22.3271 32.0407 22.3645 31.8423 22.4069C30.5001 22.9213 29.5233 24.4925 29.5233 26.352C29.5233 28.1043 30.3921 29.5987 31.614 30.195C31.6306 30.1996 31.6484 30.2064 31.6658 30.2107C31.0835 30.535 30.5926 30.7224 30.4812 30.7224C30.5001 30.7344 30.5247 30.7479 30.5512 30.7657C30.558 30.7688 30.5651 30.7725 30.5729 30.7767C30.5963 30.7903 30.6209 30.804 30.6503 30.8197C30.6575 30.8237 30.6643 30.8277 30.6724 30.8303C30.7072 30.8489 30.7479 30.8708 30.7901 30.8915C30.7978 30.8937 30.8057 30.8973 30.8118 30.9015C30.8487 30.919 30.8886 30.9347 30.9317 30.9525C30.9436 30.9575 30.9546 30.9625 30.9674 30.9673C31.0709 31.0082 31.1837 31.048 31.3099 31.0833C31.3274 31.0872 31.3442 31.0922 31.362 31.0972C31.411 31.11 31.4623 31.1218 31.5153 31.1328C31.5331 31.1376 31.5517 31.1405 31.5704 31.1446C31.6372 31.1574 31.7059 31.169 31.7781 31.1777C31.7832 31.1777 31.7887 31.1786 31.7938 31.1821C32.2384 31.2185 32.7638 31.1082 32.7638 31.1082V32.1001C32.6841 32.1001 31.9854 31.8748 31.7938 31.6832C31.7702 31.6867 31.7446 31.6912 31.7191 31.696C30.9625 31.8199 30.4694 32.0527 30.2472 32.7289C30.0258 33.4065 30.2532 33.6513 30.6082 34.1267C30.306 34.661 29.5222 34.8627 30.5462 36.0483C30.4734 36.4948 30.5669 37.2092 31.2174 37.4258C31.4305 37.4978 31.6078 37.534 31.7938 37.5673C32.1793 37.5673 32.7638 37.8893 32.7638 38.6896V46.3233C33.1149 46.3436 33.4958 46.391 33.842 46.4208V38.0364C34.2405 38.0747 35.2756 38.2164 36.4827 38.7144C36.4966 38.7211 36.5073 38.7289 36.5193 38.7368C36.5184 38.7359 36.5171 38.7359 36.5171 38.7351C36.6274 38.7486 36.7395 38.7724 36.8504 38.8055C37.6544 39.0527 38.1548 39.7504 37.9671 40.3682C37.7794 40.9848 36.9725 41.2852 36.1699 41.0388C37.1233 42.8691 40.4338 41.9736 41.1547 40.4841C41.5062 40.4527 41.819 41.0835 42.1132 41.6786C42.1132 41.6786 42.9423 41.9962 44.9957 41.9962C44.9957 41.9962 36.6826 47.3037 34.2782 47.3037C33.2509 47.3037 30.9723 47.3037 30.9723 48.0806C30.3462 48.0806 29.4434 49.1447 29.4434 49.753C30.0354 49.291 30.5177 49.291 30.5177 49.291C31.0225 49.291 31.3068 49.4418 31.3068 49.4418C31.1217 49.6245 30.2922 50.5606 30.2922 51.2876C30.9869 50.5918 31.2899 50.5947 31.2899 50.5947C31.2899 50.5947 32.0159 50.501 32.2747 50.7611C32.0997 50.9347 31.7937 51.5641 31.7937 52.3087C31.7937 52.3087 32.2246 51.477 32.7638 51.477V59.4566C32.7638 59.7004 31.6627 59.9344 31.2092 59.9344M31.5473 36.8C31.3424 36.8078 31.245 36.5415 31.2433 36.4451C31.2382 36.3475 31.3151 36.0762 31.5197 36.0681C32.0066 36.0514 32.9807 36.285 32.9846 36.381C32.9885 36.4762 32.0341 36.7824 31.5473 36.8ZM31.2332 35.483C30.9509 35.4631 30.8576 35.0814 30.867 34.9473C30.876 34.8157 31.0246 34.4506 31.3068 34.4714C31.9809 34.5219 33.2875 34.9918 33.2764 35.1246C33.2681 35.2593 31.9064 35.5327 31.2332 35.483ZM31.1173 33.7955C30.8183 33.7169 30.7937 33.2888 30.8299 33.1473C30.8672 33.0064 31.0985 32.6455 31.3987 32.7233C32.1113 32.9101 33.4214 33.6763 33.3841 33.8168C33.3476 33.9577 31.8305 33.9823 31.1173 33.7955ZM33.325 29.0408C33.4489 28.7454 33.4226 28.3421 33.3458 27.9626C33.333 27.9626 33.3202 27.9634 33.3072 27.9634C32.4497 27.9634 31.7548 27.268 31.7548 26.412C31.7421 26.2655 31.7624 26.1235 31.8118 25.9931H31.8127C31.8127 25.99 31.8144 25.987 31.8157 25.9859C32.0011 25.3368 32.5972 24.8587 33.3077 24.8587C34.1628 24.8587 34.8595 25.5541 34.8595 26.412C34.8591 27.4016 34.1623 28.3125 33.325 29.0408Z" fill="#034694"/>
<path d="M56.6191 30.3966C57.0345 31.092 57.8236 31.5267 58.6858 31.4464C59.8795 31.3349 60.7545 30.2764 60.6454 29.0821C60.6409 29.0399 60.6332 28.9992 60.6276 28.957C60.501 29.574 59.7694 30.0985 58.8453 30.1843C58.1421 30.2501 57.5083 30.0484 57.134 29.6952C56.9536 29.9422 56.7726 30.1868 56.6191 30.3966Z" fill="#ED1C24"/>
<path d="M53.7219 26.3711L54.4714 26.4106L54.0964 26.925C54.0964 26.925 53.5957 27.0833 53.7219 26.3711ZM51.9337 26.3711H53.0137C53.0137 26.3711 52.9748 27.2426 53.7633 27.3206L53.5959 27.5981C53.5959 27.5981 51.4766 27.0442 51.9337 26.3711Z" fill="white"/>
<path d="M33.3847 33.817C33.4221 33.6765 32.112 32.9101 31.3994 32.7235C31.0992 32.6457 30.8679 33.0066 30.8306 33.1475C30.7942 33.289 30.8188 33.7171 31.118 33.7957C31.8312 33.9825 33.3484 33.9579 33.3847 33.817ZM33.2773 35.1246C33.2883 34.9918 31.9818 34.5219 31.3077 34.4714C31.0255 34.4506 30.8768 34.8157 30.8679 34.9473C30.8584 35.0814 30.9515 35.4631 31.2341 35.483C31.9071 35.5329 33.2688 35.2595 33.2773 35.1246ZM31.7938 31.1818V31.6826C31.9854 31.8744 32.6841 32.0995 32.7639 32.0995V31.1076C32.7641 31.1078 32.2386 31.2179 31.7938 31.1818ZM31.5204 36.0681C31.3158 36.0762 31.2389 36.3476 31.244 36.4451C31.2457 36.5415 31.3433 36.808 31.548 36.8001C32.0348 36.7826 32.9891 36.4763 32.9853 36.3808C32.9813 36.285 32.0073 36.0512 31.5204 36.0681ZM30.5178 49.2906C29.7121 50.3348 30.2923 51.2872 30.2923 51.2872C30.2923 50.5601 31.1219 49.6241 31.3069 49.4414C31.3069 49.4416 31.0228 49.2906 30.5178 49.2906ZM33.0884 51.5059C32.9646 52.15 33.2851 52.7773 33.8399 53.0656C33.958 53.1268 34.0861 53.1752 34.2206 53.2017C34.2783 53.2149 34.3323 53.2218 34.3882 53.2282C34.4128 53.2286 34.4376 53.2291 34.4622 53.23C34.4622 53.23 33.6462 52.4661 33.9743 51.744C33.7614 51.5979 33.4438 51.5059 33.0884 51.5059ZM31.6138 30.1949C30.392 29.5986 29.5232 28.1043 29.5232 26.3521C29.5232 24.4928 30.5 22.9214 31.8422 22.407C29.8271 22.8535 28.4055 24.6443 28.5834 26.663C28.7341 28.3729 29.9834 29.7403 31.6138 30.1949ZM44.5857 25.9062C45.8825 25.6622 46.3224 26.8151 46.3224 27.2277C46.3224 28.7907 45.105 29.4205 44.0959 29.4265V29.4274C48.7769 29.4274 47.1273 23.3652 44.5857 25.9062ZM41.457 39.3581C43.6941 39.3581 43.5437 36.4362 43.0599 35.952C43.7777 35.2347 45.2548 31.9439 45.2548 31.336C45.2548 31.336 42.3021 30.6993 42.7736 28.6502C42.7727 28.6489 42.7727 28.648 42.7727 28.6463L42.7333 28.6391C41.9285 29.4882 42.4178 31.2591 43.6944 31.7009C43.6944 31.7009 43.2016 33.648 41.9854 34.8826C40.7746 34.8355 39.0775 34.6762 37.5868 34.1057C39.8911 35.3287 42.2638 37.1769 41.457 39.3581ZM32.7176 25.3289C33.2961 25.2826 33.8055 25.6927 33.8548 26.2455C33.9028 26.7955 33.472 27.2817 32.8926 27.3276C32.3119 27.3742 31.8016 26.9641 31.7553 26.4119C31.7553 27.2678 32.4501 27.9634 33.3077 27.9634C33.3205 27.9634 33.3333 27.9625 33.3462 27.9625C33.4231 28.342 33.4494 28.7453 33.3255 29.0407C34.163 28.3124 34.8595 27.4014 34.8595 26.4118C34.8595 25.5539 34.163 24.8585 33.3077 24.8585C32.5936 24.8585 31.9955 25.3394 31.8126 25.9928C31.9483 25.6336 32.2916 25.3633 32.7176 25.3289ZM49.204 24.1994C48.1924 23.186 49.6875 21.292 50.2368 21.292C49.636 21.292 47.0311 22.9975 47.9154 24.1994C48.4033 24.1994 49.204 24.1994 49.204 24.1994ZM36.17 41.0384C36.9724 41.2848 37.7793 40.9844 37.9672 40.3678C38.1551 39.75 37.6544 39.0523 36.8505 38.8051C36.7396 38.772 36.6275 38.7482 36.5172 38.7347C37.6781 39.3966 37.6645 40.7245 36.17 41.0384ZM33.8421 32.5118C33.8421 32.5118 34.9921 32.8756 36.4069 33.5221C36.1228 33.3459 35.8563 33.1474 35.6169 32.9219C34.8986 32.2431 34.3273 31.8733 33.8421 31.6853V32.5118ZM34.2783 47.3035C36.6827 47.3035 44.9959 41.9959 44.9959 41.9959C42.9426 41.9959 42.1133 41.6783 42.1133 41.6783C41.6497 41.9198 40.6985 42.3971 38.6707 43.5914C37.0208 44.5626 35.9149 45.7906 34.4105 46.3265C34.1814 46.4096 33.9992 46.4289 33.8421 46.4202C33.4958 46.3904 33.1149 46.3434 32.7639 46.3225V38.689C32.7639 37.8885 32.1794 37.5667 31.7938 37.5667V46.45C31.1435 46.7947 30.8236 47.223 30.6477 47.6235C30.6477 47.6235 29.408 47.4582 29.4435 49.7524C29.4435 49.1439 30.3463 48.0798 30.9724 48.0798C30.9724 47.3035 33.251 47.3035 34.2783 47.3035ZM55.0147 59.5924C54.4058 59.5924 51.6115 59.7107 51.3605 57.2767C50.7429 57.1441 50.0219 57.1174 49.2648 57.225C51.2403 60.9952 53.3847 61.0254 53.9458 61.0543C54.819 62.0283 54.5264 65.3178 53.2649 65.2516C48.6468 65.0056 48.8162 67.8152 49.3335 68.3898C49.3335 66.2713 50.7736 65.7691 54.4116 65.7691C54.4118 65.7691 57.3854 61.9633 55.0147 59.5924ZM55.9644 68.6895H55.3393C55.2864 69.6988 56.2855 69.9959 56.2855 69.9959C55.9644 69.675 55.7304 68.9256 55.9644 68.6895ZM50.1206 70.1104C49.8549 69.8443 49.636 68.7779 50.0219 68.3898H49.3335C49.276 69.482 50.1206 70.1104 50.1206 70.1104ZM63.906 35.0344C63.906 31.8092 59.4828 32.3159 59.2645 34.7925C59.4596 32.9772 62.4148 32.7094 62.4148 34.9831C62.4148 37.3327 56.9033 38.8719 56.9033 42.843C56.9033 47.2188 61.2787 47.6237 60.836 51.6242C60.7611 52.3166 60.0191 53.2216 58.9449 53.2216C56.6416 53.2216 55.4088 52.2441 54.6928 50.8626C55.425 52.8183 56.7136 54.3175 59.3953 54.3175C62.174 54.3175 62.4262 52.2636 62.4262 51.7865C62.4262 47.7812 58.243 46.829 58.243 43.0224C58.2434 39.3159 63.906 37.7891 63.906 35.0344ZM31.29 50.5945C31.29 51.8295 31.7938 52.3085 31.7938 52.3085C31.7938 51.564 32.0998 50.9346 32.2748 50.761C32.0162 50.5006 31.29 50.5945 31.29 50.5945ZM63.2505 43.7685C62.1277 43.7685 61.2084 44.6276 61.1116 45.7237C61.1627 45.4606 61.3381 45.205 61.6805 44.9491C62.9667 43.993 65.4878 45.9187 64.0498 47.9089C64.8402 47.5915 65.3955 46.8203 65.3955 45.9164C65.3959 44.7312 64.4355 43.7685 63.2505 43.7685ZM53.4108 68.6895H52.6609C52.5842 70.1159 53.497 70.3305 53.497 70.3305C53.1097 69.9444 53.045 69.0549 53.4108 68.6895ZM32.2247 61.0819C32.1087 61.0819 32.0005 61.1057 31.8974 61.145C31.5409 61.4164 31.3235 61.8379 31.3365 62.3003C31.4553 62.6806 31.8056 62.9554 32.2247 62.9554C32.7422 62.9554 33.1612 62.5362 33.1612 62.0191C33.1612 61.5011 32.7422 61.0819 32.2247 61.0819ZM37.493 68.0086H36.409C36.3997 69.746 37.5234 70.0611 37.5234 70.0611C37.2066 69.7421 36.8044 68.6968 37.493 68.0086ZM40.8547 57.0214C40.8547 53.0475 50.3722 52.581 50.3722 49.3071C50.3722 47.9738 49.2212 47.3717 48.403 47.3717C48.6346 47.6037 49.8725 50.2657 46.3177 50.2657C43.1032 51.3416 36.1032 57.4263 40.9621 59.5357C40.9599 60.1473 40.8775 64.701 37.9593 64.3431C33.7554 63.8229 32.7066 65.5607 33.5134 67.5164C33.5134 64.549 35.5973 65.1002 38.3187 65.1002C40.0205 65.1002 42.5085 62.9481 42.5085 59.3246C42.5085 59.3246 40.8547 58.69 40.8547 57.0214ZM32.764 59.457V51.4773C32.2246 51.4773 31.7938 52.3085 31.7938 52.3085L31.794 59.1169V59.0733L31.2045 59.0751L31.2095 59.9346C31.663 59.9344 32.764 59.7006 32.764 59.457ZM34.4022 69.7394C34.4022 69.7394 33.5609 68.4175 34.4624 67.5164H33.5134C33.1326 69.1675 34.4022 69.7394 34.4022 69.7394ZM40.2694 68.0258C40.2694 68.0258 39.8163 68.0258 39.4826 68.0258C39.4766 69.2521 40.9013 69.7164 40.9013 69.7164C40.3993 69.2167 40.0553 68.2368 40.2694 68.0258Z" fill="#6A7AB5"/>
<path d="M13.8033 54.7776L13.7508 54.6166L13.7284 54.449C13.6515 53.8751 13.5128 52.8062 12.6875 52.615C12.4669 52.5637 12.2389 52.59 11.9956 52.6901C12.0618 52.4361 12.054 52.2062 11.9743 51.9954C11.67 51.2043 10.593 51.2143 10.0143 51.2219H9.84418L9.67657 51.1909C9.10814 51.0862 8.04773 50.8882 7.61265 51.6144C7.49575 51.8083 7.4493 52.0328 7.46923 52.2943C7.24899 52.1522 7.02699 52.0886 6.80307 52.0994C5.95613 52.1445 5.63234 53.1722 5.45912 53.7253L5.40628 53.886L5.3277 54.0352C5.05016 54.5448 4.53554 55.4895 5.09139 56.1293C5.23983 56.3002 5.43957 56.4148 5.69466 56.4752C5.49299 56.6422 5.36273 56.8332 5.30583 57.0517C5.08461 57.8688 5.9629 58.4938 6.43321 58.8286L6.57121 58.9304L6.69004 59.0506C7.08854 59.4723 7.82903 60.2527 8.6088 59.9223C8.81512 59.8335 8.98621 59.6796 9.12324 59.4561C9.22078 59.6999 9.3611 59.8807 9.55019 60.0053C10.2605 60.4654 11.1254 59.8244 11.5907 59.4822L11.7283 59.3814L11.881 59.3065C12.4036 59.0562 13.3771 58.5942 13.3035 57.7502C13.284 57.5238 13.1893 57.3159 13.02 57.1167C13.2807 57.1013 13.4963 57.0223 13.6713 56.8804C14.3309 56.3476 13.9875 55.3267 13.8033 54.7776Z" fill="white"/>
<path d="M10.0938 55.4617C14.832 58.2623 13.3727 55.1826 13.2686 54.7272C13.1637 54.2734 13.1238 50.8669 10.0938 55.4617Z" fill="#ED1C24"/>
<path d="M9.79551 56.1631C8.59633 61.5327 11.0742 59.1951 11.4739 58.957C11.8734 58.7169 15.1009 57.6253 9.79551 56.1631Z" fill="#ED1C24"/>
<path d="M9.03603 56.0977C3.5565 56.6148 6.54729 58.25 6.89857 58.5554C7.25081 58.8599 9.28435 61.5936 9.03603 56.0977Z" fill="#ED1C24"/>
<path d="M8.86431 55.3528C6.6773 50.3024 6.04655 53.6514 5.86442 54.0817C5.68231 54.5082 3.7107 57.2888 8.86431 55.3528Z" fill="#ED1C24"/>
<path d="M87.1298 54.0356L87.0516 53.8864L86.998 53.7258C86.8248 53.1724 86.501 52.1449 85.6563 52.0996C85.4299 52.089 85.2091 52.1521 84.9888 52.2928C85.0089 52.033 84.9598 51.8085 84.846 51.6146C84.409 50.8881 83.3501 51.0862 82.7817 51.191L82.6123 51.2219H82.443C81.8664 51.2144 80.7884 51.2045 80.4853 51.9957C80.4029 52.2063 80.3969 52.4364 80.4615 52.6901C80.2219 52.5903 79.9935 52.5643 79.7713 52.6152C78.9469 52.806 78.8052 53.8752 78.7322 54.449L78.7069 54.6168L78.6558 54.7778C78.4706 55.3267 78.1284 56.3477 78.7878 56.8811C78.9627 57.0227 79.1768 57.1019 79.439 57.1174C79.2697 57.3165 79.1752 57.5246 79.1555 57.7508C79.0825 58.5949 80.0545 59.0568 80.578 59.3071L80.7292 59.382L80.8668 59.4828C81.3336 59.8254 82.1993 60.466 82.9073 60.006C83.0989 59.8813 83.2381 59.7006 83.3344 59.4567C83.4724 59.6802 83.6418 59.8341 83.85 59.9231C84.6294 60.2533 85.3707 59.473 85.7688 59.0512L85.8886 58.9312L86.0247 58.8292C86.4965 58.4946 87.3742 57.8695 87.1538 57.0525C87.0948 56.8334 86.967 56.6428 86.764 56.4758C87.0181 56.4152 87.2184 56.3008 87.3661 56.1299C87.9229 55.4899 87.409 54.5454 87.1298 54.0356Z" fill="white"/>
<path d="M82.9417 54.9602C78.8154 51.3199 82.194 51.7544 82.6585 51.7136C83.1209 51.6747 86.3749 50.6586 82.9417 54.9602Z" fill="#ED1C24"/>
<path d="M82.367 55.4617C77.6287 58.2623 79.0851 55.1826 79.1913 54.7272C79.2953 54.2734 79.3346 50.8669 82.367 55.4617Z" fill="#ED1C24"/>
<path d="M82.6629 56.1631C83.8627 61.5327 81.3846 59.1951 80.9842 58.957C80.5851 58.7169 77.3588 57.6253 82.6629 56.1631Z" fill="#ED1C24"/>
<path d="M83.4232 56.0977C88.903 56.6148 85.9143 58.25 85.5617 58.5554C85.2116 58.8599 83.1751 61.5936 83.4232 56.0977Z" fill="#ED1C24"/>
<path d="M83.5938 55.3528C85.7821 50.3024 86.4115 53.6514 86.5944 54.0817C86.7756 54.5082 88.7472 57.2888 83.5938 55.3528Z" fill="#ED1C24"/>
<path d="M84.6583 55.5098C84.6531 55.4658 84.639 55.4265 84.633 55.384C85.0729 55.0607 85.5482 54.7145 85.5482 54.7145L85.5026 54.6121C85.5026 54.6121 84.9481 54.7089 84.4162 54.8016C84.1493 54.3642 83.6943 54.0675 83.1733 54.0168C83.0078 53.5194 82.8425 53.0127 82.8425 53.0127L82.731 53.0222C82.731 53.0222 82.6561 53.5502 82.5807 54.0673C82.2605 54.1538 81.9731 54.335 81.7546 54.5943C81.6381 54.7341 81.5539 54.8922 81.487 55.0573C80.9512 55.0573 80.3851 55.059 80.3851 55.059L80.3613 55.1693C80.3613 55.1693 80.8891 55.4266 81.3766 55.6652C81.3784 55.7097 81.3727 55.7536 81.3766 55.7985C81.414 56.228 81.6151 56.6135 81.9395 56.8948C81.7682 57.4301 81.5754 58.0283 81.5754 58.0283L81.6699 58.0854C81.6699 58.0854 82.1144 57.625 82.5102 57.2186C82.7169 57.2865 82.937 57.3132 83.1594 57.2935C83.3835 57.2764 83.596 57.2093 83.7888 57.1092C84.2476 57.4396 84.7652 57.8139 84.7652 57.8139L84.8499 57.7409C84.8499 57.7409 84.5565 57.1864 84.2951 56.69C84.5662 56.3552 84.6939 55.9383 84.6583 55.5098Z" fill="white"/>
<path d="M82.9319 54.6856C82.6722 54.7058 82.4382 54.8285 82.2712 55.0292C82.1041 55.2281 82.0233 55.4795 82.0471 55.7379C82.0923 56.2729 82.5661 56.6706 83.0995 56.6234C83.3612 56.5996 83.5933 56.4774 83.7626 56.2793C83.9281 56.0786 84.0086 55.8287 83.9867 55.5686C83.9401 55.0334 83.4657 54.6373 82.9319 54.6856Z" fill="#ED1C24"/>
<path d="M9.51903 54.9602C13.6467 51.3199 10.2661 51.7544 9.80295 51.7136C9.33826 51.6747 6.08484 50.6586 9.51903 54.9602Z" fill="#ED1C24"/>
<path d="M11.0816 55.6652C11.5726 55.4268 12.0978 55.1692 12.0978 55.1692L12.0733 55.0588C12.0733 55.0588 11.5083 55.0571 10.9712 55.0571C10.9062 54.8922 10.8216 54.7339 10.7045 54.5943C10.4862 54.335 10.199 54.154 9.87811 54.0671C9.80457 53.5496 9.72966 53.0222 9.72966 53.0222L9.61625 53.0127C9.61625 53.0127 9.45193 53.519 9.28897 54.0168C8.76467 54.0675 8.30908 54.3642 8.04257 54.8016C7.51285 54.7089 6.95506 54.6121 6.95506 54.6121L6.91211 54.7145C6.91211 54.7145 7.38629 55.0607 7.82601 55.384C7.81886 55.4267 7.80608 55.466 7.80142 55.5096C7.76506 55.9404 7.89567 56.3551 8.16644 56.69C7.90284 57.186 7.60943 57.7409 7.60943 57.7409L7.69633 57.8139C7.69633 57.8139 8.21289 57.4396 8.67139 57.1092C8.86415 57.2098 9.07647 57.2745 9.30001 57.2934C9.52413 57.3136 9.7436 57.2865 9.95031 57.2185C10.3449 57.6252 10.7889 58.0854 10.7889 58.0854L10.8863 58.0283C10.8863 58.0283 10.6931 57.4297 10.5209 56.8963C10.8447 56.6131 11.0456 56.2276 11.0837 55.7981C11.0883 55.7536 11.0816 55.7097 11.0816 55.6652Z" fill="white"/>
<path d="M10.1877 55.0292C10.0201 54.8285 9.78725 54.7054 9.52636 54.6856C8.99315 54.6373 8.51879 55.0334 8.47233 55.5688C8.45029 55.8289 8.53059 56.0788 8.69607 56.2795C8.86329 56.4776 9.09844 56.5998 9.35798 56.6236C9.89118 56.6708 10.3654 56.2729 10.4116 55.7381C10.4335 55.4795 10.3537 55.2281 10.1877 55.0292Z" fill="#ED1C24"/>
<path d="M10.1211 32.0621C7.81431 31.6547 5.60542 33.2033 5.19782 35.5101C4.79081 37.8184 6.33759 40.0271 8.6446 40.4345C10.9535 40.8417 13.1634 39.294 13.5696 36.986C13.978 34.6788 12.4303 32.4701 10.1211 32.0621Z" fill="white"/>
<path d="M11.0834 35.2769C11.0461 35.2541 10.9811 35.2119 10.9023 35.1598C10.5537 34.9287 9.87033 34.4768 9.85156 34.4633C9.75691 34.3982 9.66479 34.3363 9.57402 34.2751C9.27016 34.0715 8.99843 33.8944 8.74295 33.747C8.64444 33.691 8.54922 33.6388 8.45342 33.5919C8.04717 33.387 7.65777 33.2631 7.19811 33.2227C6.84373 33.4785 6.5362 33.7953 6.28711 34.1615C7.34404 34.5432 8.376 35.1544 10.5247 36.4891C10.6476 36.2049 11.0589 35.3301 11.0834 35.2769Z" fill="#ED1C24"/>
<path d="M10.0923 37.5551C10.1352 37.448 10.3242 36.97 10.4014 36.7859C8.19946 35.4182 7.17698 34.813 6.11773 34.4385C5.95341 34.7334 5.83032 35.0553 5.75 35.3979C6.35462 36.228 7.97495 37.0435 10.0923 37.5551Z" fill="#ED1C24"/>
<path d="M9.85513 34.0795C10.6796 33.5918 11.6164 33.7245 12.3394 33.9713C12.0698 33.6231 11.7433 33.3189 11.3636 33.082C10.6806 32.9461 9.73727 32.9248 8.98633 33.5217C9.25942 33.6822 9.54141 33.8693 9.85513 34.0795Z" fill="#ED1C24"/>
<path d="M6.56474 38.0192C6.67506 38.0949 6.78808 38.1669 6.90827 38.2345C7.15097 38.3686 7.4138 38.4845 7.68535 38.5838C7.8005 38.6274 7.91759 38.6678 8.03565 38.7059C8.44867 38.8418 9.39644 39.088 9.46708 39.1044C9.48162 39.068 9.83675 38.1897 9.97145 37.8561C8.32983 37.4489 6.53223 36.7362 5.67813 35.8096C5.62684 36.2375 5.64677 36.6608 5.73716 37.0622C5.91734 37.4547 6.20669 37.7674 6.56474 38.0192Z" fill="#ED1C24"/>
<path d="M9.52256 39.4478L9.17999 39.3596C8.86239 39.2789 8.51808 39.1885 8.16797 39.0811C8.33867 39.4449 8.60731 39.7285 8.89375 39.9479C9.27754 39.9988 9.6563 39.9892 10.0204 39.9262C9.75733 39.7217 9.52256 39.4478 9.52256 39.4478Z" fill="#ED1C24"/>
<path d="M12.9552 35.1647C12.8772 34.9098 12.7748 34.6629 12.6461 34.4327C11.9989 34.1442 11.0132 33.8622 10.1523 34.2833L11.3397 35.0674C11.5873 35.0453 11.8151 35.0385 12.0235 35.0436C12.1373 35.0453 12.243 35.0515 12.344 35.0614C12.5764 35.0819 12.7748 35.1192 12.9552 35.1647Z" fill="#ED1C24"/>
<path d="M12.3489 35.3818C12.3142 37.3331 11.3943 38.8381 10.6016 39.7797C11.8424 39.3485 12.8209 38.2791 13.065 36.8978C13.1486 36.4258 13.1339 35.9615 13.0464 35.5196C12.8536 35.4596 12.6231 35.4095 12.3489 35.3818Z" fill="#ED1C24"/>
<path d="M8.68991 33.3567C9.24557 32.8669 9.90187 32.7014 10.5071 32.6879C10.3534 32.6387 10.1968 32.5963 10.0337 32.5686C9.17067 32.4163 8.32644 32.5768 7.60938 32.9652C7.99123 33.0399 8.33631 33.1738 8.68991 33.3567Z" fill="#ED1C24"/>
<path d="M11.3851 35.3837C11.1028 35.9718 10.9367 36.332 10.7989 36.6597C10.7565 36.759 10.7153 36.8553 10.6737 36.9556C10.6079 37.1199 10.405 37.6307 10.405 37.6307L10.2841 37.9305L9.75977 39.2293C9.90434 39.4211 10.0795 39.5775 10.2518 39.6996C11.0308 38.8111 12.0002 37.3177 12.0298 35.3629C11.8338 35.356 11.6181 35.3632 11.3851 35.3837Z" fill="#ED1C24"/>
<path d="M7.77499 38.9514C7.51351 38.8614 7.25243 38.7589 7.00586 38.6387C7.09798 38.9232 7.23075 39.1758 7.36449 39.3925C7.64416 39.5719 7.95111 39.7134 8.27878 39.8144C8.06646 39.5752 7.88318 39.2923 7.77499 38.9514Z" fill="#ED1C24"/>
<path d="M6.62184 38.4286C6.44456 38.3223 6.27966 38.2041 6.12695 38.0742C6.29979 38.3833 6.51752 38.6666 6.77009 38.9152C6.7101 38.7601 6.65745 38.5997 6.62184 38.4286Z" fill="#ED1C24"/>
<path d="M78.4282 36.986C78.836 39.294 81.0441 40.8417 83.3517 40.4345C85.6599 40.0273 87.2063 37.8184 86.801 35.5101C86.3936 33.2033 84.1844 31.6547 81.876 32.0621C79.568 32.4699 78.0214 34.6786 78.4282 36.986Z" fill="white"/>
<path d="M80.9141 35.2769C80.9506 35.2541 81.0161 35.2119 81.0966 35.1598C81.4455 34.9287 82.1278 34.4768 82.1452 34.4633C82.2419 34.3982 82.3343 34.3363 82.4248 34.2751C82.7254 34.0715 82.9995 33.8944 83.2553 33.747C83.3536 33.691 83.45 33.6388 83.5441 33.5919C83.9494 33.387 84.3409 33.2631 84.7998 33.2227C85.154 33.4785 85.4629 33.7953 85.7085 34.1615C84.6523 34.5432 83.6234 35.1544 81.472 36.4891C81.3488 36.2049 80.9394 35.3301 80.9141 35.2769Z" fill="#ED1C24"/>
<path d="M81.9066 37.5551C81.863 37.448 81.6726 36.97 81.5996 36.7859C83.7973 35.4182 84.8228 34.813 85.8813 34.4385C86.0447 34.7334 86.1685 35.0553 86.2491 35.3979C85.6435 36.228 84.0233 37.0435 81.9066 37.5551Z" fill="#ED1C24"/>
<path d="M82.1437 34.0795C81.3184 33.5918 80.3824 33.7245 79.6582 33.9713C79.9282 33.6231 80.2566 33.3189 80.6362 33.082C81.3184 32.9461 82.2611 32.9248 83.0111 33.5217C82.7402 33.6822 82.4562 33.8693 82.1437 34.0795Z" fill="#ED1C24"/>
<path d="M85.4317 38.0192C85.3239 38.0949 85.2113 38.1669 85.089 38.2345C84.8474 38.3686 84.585 38.4845 84.314 38.5838C84.1979 38.6274 84.08 38.6678 83.9622 38.7059C83.5513 38.8418 82.6026 39.088 82.5313 39.1044C82.5155 39.068 82.1593 38.1897 82.0273 37.8561C83.6684 37.4489 85.4646 36.7362 86.3213 35.8096C86.3723 36.2375 86.3503 36.6608 86.2614 37.0622C86.0807 37.4547 85.7919 37.7674 85.4317 38.0192Z" fill="#ED1C24"/>
<path d="M82.4767 39.4478L82.817 39.3596C83.1355 39.2789 83.482 39.1885 83.8323 39.0811C83.6591 39.4449 83.3916 39.7285 83.1057 39.9479C82.7225 39.9988 82.3426 39.9892 81.9805 39.9262C82.2404 39.7217 82.4767 39.4478 82.4767 39.4478Z" fill="#ED1C24"/>
<path d="M79.043 35.1647C79.1215 34.9098 79.2222 34.6629 79.354 34.4327C79.9993 34.1442 80.9828 33.8622 81.8443 34.2833L80.6581 35.0674C80.4101 35.0453 80.1825 35.0385 79.9735 35.0436C79.8613 35.0453 79.755 35.0515 79.6526 35.0614C79.4206 35.0819 79.2243 35.1192 79.043 35.1647Z" fill="#ED1C24"/>
<path d="M79.6506 35.3818C79.6843 37.3331 80.6065 38.8381 81.4 39.7797C80.156 39.3485 79.1763 38.2791 78.9347 36.8978C78.8519 36.4258 78.8637 35.9615 78.9541 35.5196C79.1453 35.4596 79.3773 35.4095 79.6506 35.3818Z" fill="#ED1C24"/>
<path d="M83.3101 33.3567C82.7541 32.8669 82.0964 32.7014 81.4922 32.6879C81.6453 32.6387 81.8011 32.5963 81.9658 32.5686C82.828 32.4163 83.672 32.5768 84.3889 32.9652C84.0086 33.0399 83.6628 33.1738 83.3101 33.3567Z" fill="#ED1C24"/>
<path d="M80.6125 35.3837C80.8956 35.9718 81.0586 36.332 81.201 36.6597C81.2419 36.759 81.2812 36.8553 81.3228 36.9556C81.3897 37.1199 81.5924 37.6307 81.5924 37.6307L81.7126 37.9305L82.238 39.2293C82.0925 39.4211 81.9187 39.5775 81.7458 39.6996C80.9672 38.8111 79.996 37.3177 79.9688 35.3629C80.1638 35.356 80.3804 35.3632 80.6125 35.3837Z" fill="#ED1C24"/>
<path d="M84.2241 38.9514C84.4858 38.8614 84.7449 38.7589 84.9938 38.6387C84.899 38.9232 84.7689 39.1758 84.6332 39.3925C84.354 39.5719 84.047 39.7134 83.7207 39.8144C83.9326 39.5752 84.1157 39.2923 84.2241 38.9514Z" fill="#ED1C24"/>
<path d="M85.3797 38.4286C85.5547 38.3223 85.7199 38.2041 85.8734 38.0742C85.7002 38.3833 85.484 38.6666 85.2305 38.9152C85.2893 38.7601 85.3423 38.5997 85.3797 38.4286Z" fill="#ED1C24"/>
</g>
<defs>
<clipPath id="clip0_1000_454">
<rect width="92" height="92" fill="white"/>
</clipPath>
</defs>
</svg>
